<?xml version="1.0" encoding="utf-8"?>
<!-- Generator: Adobe Illustrator 12.0.1, SVG Export Plug-In . SVG Version: 6.00 Build 51448)  -->
<!DOCTYPE svg PUBLIC "-//W3C//DTD SVG 1.0//EN" "http://www.w3.org/TR/2001/REC-SVG-20010904/DTD/svg10.dtd" [
	<!ENTITY ns_svg "http://www.w3.org/2000/svg">
	<!ENTITY ns_xlink "http://www.w3.org/1999/xlink">
]>
<svg  version="1.0" id="Layer_1" xmlns="&ns_svg;" xmlns:xlink="&ns_xlink;" width="425.195" height="173.708"
	 viewBox="0 0 425.195 173.708" overflow="visible" enable-background="new 0 0 425.195 173.708" xml:space="preserve">
<path fill="#04703C" d="M151.796,66.752c6.65,6.767,1.927,18.253-1.309,24.78H70.896C77.878,83.07,84.669,75.059,94.6,69.736
	c11.027-6,22.569-9.093,34.603-9.244C139.312,60.373,147.239,62.124,151.796,66.752 M266.332,134.078
	c-32.739,0-44.617-25.745-27.864-55.296c16.39-28.922,54.439-52.377,85.496-52.377c32.735,0,44.612,25.741,27.864,55.297
	c-6.169,10.879-14.235,19.266-23.671,27.414L312.808,92.31l-32.928,17.626l16.474,18.029
	C286.324,131.397,277.092,134.078,266.332,134.078z M62.997,103.836h139.819c13.114-19.941,25.234-43.001-4.433-54.819
	c-10.976-4.376-28.962-6.539-54.312-6.224C97.033,43.381,35.548,58.929,8.086,100.68c-12.412,18.875-11.993,37.711,11.57,46.376
	c30.725,11.291,85.926,6.145,116.735-2.565c16.501-4.668,40.216-16.062,54.851-23.706l8.569,12.531c0,0-13.932,6.738-19.789,9.6
	c33.84,29.583,99.691,22.223,138.332,9.14l19.772,21.652l32.927-17.618l-17.714-19.398c28.375-16.019,73.423-49.815,71.814-89.939
	C423.59,7.86,367.083-11.937,293.641,7.657c-28.965,7.724-54.683,19.836-75.824,34.814c27.242,20.606,10.05,54.499-6.722,75.445
	l-8.398,0.012h-61.302c-7.146,3.651-27.916,13.219-32.804,14.675c-12.607,3.643-38.129,7.568-47.233-4.729
	C56.51,121.546,60.184,109.733,62.997,103.836z"/>
</svg>
