<?xml version="1.0" encoding="UTF-8"?><svg id="LOGO" xmlns="http://www.w3.org/2000/svg" viewBox="0 0 1235.77 471.55"><defs><style>.cls-1{fill:#e7131a;stroke-width:0px;}</style></defs><path class="cls-1" d="M156.48,271.25c0,22.34,18.42,44.82,44.66,44.82,12.83,0,23.57-4.16,34.29-14.84l86.63-86.22c2.51-2.5,2.51-6.56,0-9.06l-66.31-65.99c-12.56-12.5-33.85-21.89-54.62-21.89-48.81,0-83.26,38.17-83.26,82.58,0,12.42,2.82,24.18,8.2,35.28,0,.02,0,.04,0,.05-5.71,11.57-8.2,22.48-8.2,35.28,0,44.48,30.95,82.58,83.26,82.58,18.71,0,39.14-6.03,54.62-21.46l66.27-66.1c2.5-2.5,2.51-6.55,0-9.05l-8.01-8.01c-.64-.64-1.68-.64-2.33,0l-69.24,69.08c-10.32,10.3-25.3,16.16-41.32,16.16-40.3,0-63.88-28.51-63.88-63.2,0-18.88,10.39-34.41,10.94-35.22.02-.02.01-.04,0-.07-.58-.74-10.94-14.29-10.94-35.32,0-32.89,25.82-63.2,63.88-63.2,15.81,0,32.08,7.41,41.32,16.61l56.65,56.39s.02.06,0,.09l-77.34,76.97c-6.54,6.51-12.78,9.19-20.63,9.19-12.72,0-25.32-11.47-25.32-25.44,0-21.1,14.04-30.62,20.49-33.88,1.15-.58,1.15-2.21.01-2.8-6.44-3.32-20.49-13.02-20.49-33.92,0-12.4,10.62-25.44,25.31-25.44,7.88,0,14.09,2.73,20.61,9.24l38.58,38.54c.64.64,1.69.64,2.33,0l11.37-11.39c.64-.64.64-1.68,0-2.33l-38.58-38.54c-10.61-10.59-20.61-14.91-34.31-14.91-24.94,0-44.71,21.22-44.71,44.82,0,20.47,10.13,30.32,16.03,35.29.03.02.03.07,0,.09-5.89,4.97-15.98,16.19-15.98,35.23Z"/><path class="cls-1" d="M467.55,169.8c-37.25,0-64.23,28.11-64.23,66.14,0,45.45,34.29,66.14,66.14,66.14,21.02,0,37.85-7.04,52.97-22.16,1.9-1.89,1.99-3.73.27-5.44l-7.08-7.08c-.97-.97-1.93-1.46-2.86-1.46s-1.88.49-2.83,1.43c-10.65,12.22-23.51,17.9-40.47,17.9-25.4,0-43.59-17.29-45.25-43.03l-.04-.62h101.66c1.99,0,3.23-1.24,3.23-3.23v-7.08c0-30.24-23.01-61.51-61.51-61.51ZM424.65,225.9l.11-.68c3.98-24.18,20.18-38.61,43.33-38.61,21.81,0,39.15,16.63,40.35,38.68l.03.61h-83.82Z"/><path class="cls-1" d="M880.71,169.8c-37.25,0-64.23,28.11-64.23,66.14,0,45.45,34.29,66.14,66.14,66.14,21.02,0,37.85-7.04,52.97-22.16,1.9-1.89,1.99-3.73.27-5.44l-7.08-7.08c-.97-.97-1.93-1.46-2.86-1.46s-1.88.49-2.83,1.43c-10.65,12.22-23.51,17.9-40.47,17.9-25.4,0-43.59-17.29-45.25-43.03l-.04-.62h101.66c1.99,0,3.23-1.24,3.23-3.23v-7.08c0-30.24-23.01-61.51-61.51-61.51ZM837.81,225.9l.11-.68c3.98-24.18,20.18-38.61,43.33-38.61,21.81,0,39.15,16.63,40.35,38.68l.03.61h-83.82Z"/><path class="cls-1" d="M605.74,226.15c-17.37-4.79-31.75-9.8-31.75-22.62,0-10.12,9.1-16.92,22.64-16.92,12.05,0,21.83,4.16,31.73,13.51,1.11,1.11,2.16,1.65,3.21,1.65,1.13,0,2.3-.63,3.57-1.89l5.75-6.56c.71-.71,1.13-1.59,1.19-2.49.06-.91-.26-1.75-.95-2.44-10.76-12.51-25.04-18.59-43.68-18.59-20.71,0-42.99,10.81-42.99,34.55,0,17.97,12.6,29.9,38.51,36.47,23.55,6.03,34.75,11.4,34.75,25.62,0,11.44-10.6,18.83-27,18.83-14.78,0-26.19-7.18-35.9-22.61-.65-1.05-1.72-1.65-2.94-1.65-.78,0-1.57.26-2.28.76l-9.79,5.44c-1.07.64-1.78,1.56-2.04,2.64-.26,1.1-.05,2.32.61,3.37,11.87,19.69,28.24,28.86,51.52,28.86,31.44,0,47.89-19.02,47.89-37.82,0-12.38-4.78-27.91-42.06-38.11Z"/><path class="cls-1" d="M1031.86,169.8c-23.55,0-38.49,14.53-45.3,23.2l-1.04,1.33v-18.57c0-2.41-.82-3.23-3.23-3.23h-13.07c-2.41,0-3.23.82-3.23,3.23v120.38c0,2.42.82,3.23,3.23,3.23h13.07c2.41,0,3.23-.82,3.23-3.23v-52.02c0-33.86,17.26-57.5,41.98-57.5,13.83,0,20.39,6.06,22.64,20.91.24,1.42,1.42,2.24,3.24,2.24h13.07c2.7,0,3.23-.79,3.23-2.14,0-24.03-13.78-37.82-37.82-37.82Z"/><path class="cls-1" d="M1096.68,172.52h13.07c1.78,0,3.23,1.45,3.23,3.23v120.38c0,1.78-1.45,3.23-3.23,3.23h-13.07c-1.78,0-3.23-1.45-3.23-3.23v-120.38c0-1.78,1.45-3.23,3.23-3.23Z"/><path class="cls-1" d="M1103.22,118.06c-8.09,0-14.67,6.58-14.67,14.67s6.58,14.67,14.67,14.67,14.67-6.58,14.67-14.67-6.58-14.67-14.67-14.67Z"/><path class="cls-1" d="M735.81,169.8c-18.14,0-34.6,9.21-42.87,18.33l-1.01,1.12v-13.5c0-1.78-1.45-3.23-3.23-3.23h-13.07c-1.78,0-3.23,1.45-3.23,3.23v174.85c0,1.78,1.45,3.23,3.23,3.23h13.07c1.78,0,3.23-1.45,3.23-3.23v-61.45l.96.82c6.85,5.84,21.58,12.12,37.75,12.12,38.28,0,62.06-25.35,62.06-66.14s-21.26-66.14-56.88-66.14ZM730.37,285.27c-18.51,0-38.44-9.81-38.44-31.36v-25.33c0-23.93,17.58-41.98,40.89-41.98s39.26,19.26,39.26,49.06-16.76,49.6-41.71,49.6Z"/></svg>