<svg xmlns="http://www.w3.org/2000/svg" width="150" height="24.382" viewBox="0 0 150 24.382">
    <defs>
        <style>
            .cls-1{fill:#7fc200}
        </style>
    </defs>
    <g id="LOGO" transform="translate(-172.502 -180.751)">
        <path id="Path_1" d="M341.13 205.172a9.842 9.842 0 0 1-10.23-10.23v-3.706a10.233 10.233 0 1 1 20.461 0v3.706a9.841 9.841 0 0 1-10.23 10.23m0-18.247a3.956 3.956 0 0 0-4.312 4.311v3.706a4.319 4.319 0 1 0 8.624 0v-3.706a3.954 3.954 0 0 0-4.312-4.311" class="cls-1" data-name="Path 1" transform="translate(-109.988 -.177)"/>
        <path id="Path_2" d="M239.823 205.274a2.959 2.959 0 0 1-2.959-2.959v-18.4a2.959 2.959 0 1 1 5.918 0v18.4a2.959 2.959 0 0 1-2.959 2.959" class="cls-1" data-name="Path 2" transform="translate(-44.692 -.141)"/>
        <path id="Path_3" d="M514.863 205.274a2.959 2.959 0 0 1-2.959-2.959v-18.4a2.959 2.959 0 1 1 5.918 0v18.4a2.959 2.959 0 0 1-2.959 2.959" class="cls-1" data-name="Path 3" transform="translate(-235.674 -.141)"/>
        <path id="Path_4" d="M175.626 205.191a2.959 2.959 0 0 1 0-5.918h2.38c1.073 0 2.232-.006 3.187-.006 2.332 0 2.381-.374 2.418-.652.047-.355.34-.716-1.951-1.965-.705-.384-.908-.478-1.073-.556-.348-.162-.592-.282-1.923-1.042-.282-.161-.559-.314-.829-.464-2.376-1.315-5.333-2.951-5.333-6.838 0-3.913 3.323-6.865 7.73-6.865h5.828a2.959 2.959 0 1 1 0 5.918h-5.828c-1.551 0-1.812.362-1.812.947 0 .34.7.787 2.28 1.659.292.161.591.328.9.5 1.184.675 1.327.742 1.495.82.213.1.475.22 1.387.714 1.974 1.069 5.646 3.06 5.037 7.667-.746 5.634-6.558 6.072-8.322 6.072-.951 0-2.1 0-3.171.006z" class="cls-1" data-name="Path 4" transform="translate(0 -.091)"/>
        <path id="Path_5" d="M542.392 205.191a2.959 2.959 0 0 1 0-5.918h2.38c1.073 0 2.232-.006 3.187-.006 2.332 0 2.381-.374 2.418-.652.047-.355.341-.716-1.95-1.965-.705-.384-.908-.478-1.073-.556-.348-.162-.592-.282-1.923-1.042-.282-.161-.559-.314-.829-.464-2.376-1.315-5.333-2.951-5.333-6.838 0-3.913 3.323-6.865 7.73-6.865h5.828a2.959 2.959 0 1 1 0 5.918H547c-1.551 0-1.812.362-1.812.947 0 .34.7.787 2.28 1.659.292.161.591.328.9.5 1.184.675 1.328.742 1.495.82.213.1.475.22 1.387.714 1.974 1.069 5.646 3.06 5.037 7.667-.746 5.634-6.558 6.072-8.322 6.072-.951 0-2.1 0-3.171.006z" class="cls-1" data-name="Path 5" transform="translate(-254.675 -.091)"/>
        <path id="Path_6" d="M417.853 190.246a2.959 2.959 0 0 0-5.444-2.319l-2.781 6.529-4.892-11.872a2.959 2.959 0 0 0-5.472 2.255l7.583 18.4a2.968 2.968 0 0 0 .237.451c.022.035.049.068.073.1a2.946 2.946 0 0 0 .25.316c.035.038.071.075.108.111a2.92 2.92 0 0 0 .322.273c.03.021.056.046.086.066a2.94 2.94 0 0 0 .469.258c.012 0 .021.013.033.018s.053.014.08.025a3 3 0 0 0 .409.127c.05.012.1.024.15.034a2.945 2.945 0 0 0 .511.051h.02a2.886 2.886 0 0 0 .5-.049c.049-.009.1-.021.148-.032a2.9 2.9 0 0 0 .382-.115c.03-.011.061-.015.09-.027s.028-.016.043-.023a2.977 2.977 0 0 0 .465-.248c.03-.02.055-.043.084-.064a2.843 2.843 0 0 0 .323-.268c.039-.038.077-.077.114-.116a2.962 2.962 0 0 0 .244-.3c.027-.038.057-.073.082-.112a3.011 3.011 0 0 0 .239-.444l.009-.02z" class="cls-1" data-name="Path 6" transform="translate(-157.304)"/>
        <path id="Path_7" d="M280.469 180.883h-10.578l.027.014c-.092 0-.182-.014-.276-.014h-4a2.959 2.959 0 0 0-2.959 2.959 3.064 3.064 0 0 0 2.959 3.079h4c.542 0 .709.058.709.95v14.293a2.959 2.959 0 0 0 5.918 0v-14.292c0-.59.057-.95.607-.95h3.594a3.064 3.064 0 0 0 2.959-3.079 2.959 2.959 0 0 0-2.959-2.959" class="cls-1" data-name="Path 7" transform="translate(-62.621 -.091)"/>
        <path id="Path_8" d="M465.974 180.978a2.961 2.961 0 0 0-3.863 1.608l-5.985 14.523s-2.525-2.264-3.018-2.756l-2.448 5.747 4.623 4.213c.054.049.115.084.172.128s.138.111.214.159a2.866 2.866 0 0 0 .326.175c.049.023.091.054.14.075.013.005.025.006.038.011a2.9 2.9 0 0 0 .388.117c.052.013.1.033.155.043a2.978 2.978 0 0 0 .448.044c.032 0 .065.009.1.009a2.921 2.921 0 0 0 .54-.056c.049-.009.1-.021.146-.033a2.939 2.939 0 0 0 .409-.13c.04-.016.081-.028.12-.046a2.969 2.969 0 0 0 .467-.265c.036-.026.071-.054.106-.082a2.937 2.937 0 0 0 .354-.317c.019-.019.04-.032.058-.052s.015-.023.024-.033a2.931 2.931 0 0 0 .318-.434c.02-.034.034-.07.053-.1a2.915 2.915 0 0 0 .142-.282l7.583-18.4a2.959 2.959 0 0 0-1.608-3.863" class="cls-1" data-name="Path 8" transform="translate(-193.147 -.003)"/>
        <path id="Path_9" d="M616.372 198.792a15.3 15.3 0 0 1-2.614.567 17.793 17.793 0 0 1-3.112.07 3.524 3.524 0 0 1-2.818-1.2 3.8 3.8 0 0 1-.592-1.52c-.035-.178-.01-.564.615-.564h4.16c3.092 0 5.348-.9 6.707-2.682a7.577 7.577 0 0 0 1.21-5.751 9.279 9.279 0 0 0-2.316-4.186 9.442 9.442 0 0 0-6.966-2.709 9.186 9.186 0 0 0-9.616 9.616v5.031a9.576 9.576 0 0 0 2.658 6.96 9.987 9.987 0 0 0 6.958 2.7 23.117 23.117 0 0 0 7.078-.848 2.773 2.773 0 0 0 2-3.515 2.612 2.612 0 0 0-3.355-1.97m-5.726-12.281a3.028 3.028 0 0 1 3.061 1.674 2.061 2.061 0 0 1-.1 1.616 1.987 1.987 0 0 1-1.761.646h-3.991c-.693 0-.723-.342-.7-.5.35-3.013 2.021-3.434 3.5-3.434" class="cls-1" data-name="Path 9" transform="translate(-297.561 -.044)"/>
    </g>
</svg>
